# xmcd
#
# Track frame offsets:
#	150
#	14760
#	25562
#	34685
#	46092
#	54937
#	64447
#	75987
#	86887
#	98290
#	110310
#	120225
#	133107
#	141712
#	153157
#	161620
#	173352
#	184610
#	198697
#	211520
#	225480
#	233560
#
# Disc length: 3317 seconds
#
# Revision: 1
# Processed by: cddbd v1.5.1PL0 Copyright (c) Steve Scherf et al.
# Submitted via: EasyCDDAExtractor 6.5.0.3
#
DISCID=0a0cf316
DTITLE=Lawrence Welk - 22 All-Time Big Band Favorites
DYEAR=1985
DGENRE=Acapella
TTITLE0=Take The "A" Train
TTITLE1=Sentimental Journey
TTITLE2=Heartaches
TTITLE3=String Of Pearls
TTITLE4=Who Wouldn't Love You
TTITLE5=Boogie Woodie
TTITLE6=Sunrise Serenade
TTITLE7=And The Angels Sing
TTITLE8=The Waltz You Saved For Me
TTITLE9=Tangerine
TTITLE10=King Porter Stomp
TTITLE11=One O'clock Jump
TTITLE12=Boo Hoo
TTITLE13=Cirbiribin
TTITLE14=Got A Date With An Angel
TTITLE15=Cumana
TTITLE16=Christopher Columbus
TTITLE17=Begin The Begine
TTITLE18=Does Your Heart Beat For Me
TTITLE19=Woodchopper's Ball
TTITLE20=Oh Johnny, Oh Johnny, Oh
TTITLE21=South Rampart Street Parade
EXTD=
EXTT0=
EXTT1=
EXTT2=
EXTT3=
EXTT4=
EXTT5=
EXTT6=
EXTT7=
EXTT8=
EXTT9=
EXTT10=
EXTT11=
EXTT12=
EXTT13=
EXTT14=
EXTT15=
EXTT16=
EXTT17=
EXTT18=
EXTT19=
EXTT20=
EXTT21=
PLAYORDER=
